<?xml version="1.0" encoding="utf-8"?>
<!-- Generator: Adobe Illustrator 25.3.0, SVG Export Plug-In . SVG Version: 6.00 Build 0)  -->
<svg version="1.1" xmlns="http://www.w3.org/2000/svg" xmlns:xlink="http://www.w3.org/1999/xlink" x="0px" y="0px"
	 viewBox="0 0 595.28 595.28" style="enable-background:new 0 0 595.28 595.28;" xml:space="preserve">
<style type="text/css">
	.st0{fill-rule:evenodd;clip-rule:evenodd;fill:#0086E9;}
	.st1{fill:#1972EE;}
	.st2{fill:#F2F6FC;}
	.st3{fill:#FFFFFF;}
	.st4{fill:#FFFFFF;stroke:#1972EE;stroke-width:14;stroke-miterlimit:10;}
	.st5{fill:#FFFFFF;stroke:#1972EE;stroke-width:11.1578;stroke-miterlimit:10;}
</style>
<g id="Layer_2">
	<rect x="0" class="st0" width="595.28" height="595.28"/>
</g>
<g id="Layer_1">
	<g>
		<g>
			<path class="st3" d="M434.38,274.43h-90.87c-2.39,0-4.34-1.95-4.34-4.34v-11.32c0-2.39,1.95-4.34,4.34-4.34h90.87
				c2.39,0,4.34,1.95,4.34,4.34v11.32C438.73,272.48,436.77,274.43,434.38,274.43z"/>
			<path class="st3" d="M434.38,313h-90.87c-2.39,0-4.34-1.95-4.34-4.34v-11.32c0-2.39,1.95-4.34,4.34-4.34h90.87
				c2.39,0,4.34,1.95,4.34,4.34v11.32C438.73,311.05,436.77,313,434.38,313z"/>
			<path class="st3" d="M434.38,351.57h-90.87c-2.39,0-4.34-1.95-4.34-4.34v-11.32c0-2.39,1.95-4.34,4.34-4.34h90.87
				c2.39,0,4.34,1.95,4.34,4.34v11.32C438.73,349.62,436.77,351.57,434.38,351.57z"/>
			<path class="st3" d="M434.38,391.12H160.89c-2.39,0-4.34-1.95-4.34-4.34v-11.32c0-2.39,1.95-4.34,4.34-4.34h273.49
				c2.39,0,4.34,1.95,4.34,4.34v11.32C438.73,389.17,436.77,391.12,434.38,391.12z"/>
			<path class="st3" d="M434.38,428.85H160.89c-2.39,0-4.34-1.95-4.34-4.34v-11.32c0-2.39,1.95-4.34,4.34-4.34h273.49
				c2.39,0,4.34,1.95,4.34,4.34v11.32C438.73,426.89,436.77,428.85,434.38,428.85z"/>
			<path class="st3" d="M434.38,186.44H160.89c-2.39,0-4.34-1.95-4.34-4.34v-11.32c0-2.39,1.95-4.34,4.34-4.34h273.49
				c2.39,0,4.34,1.95,4.34,4.34v11.32C438.73,184.48,436.77,186.44,434.38,186.44z"/>
			<g>
				<g>
					<g>
						<polygon class="st3" points="314.37,351.49 283.36,300.22 237.54,319.77 206.87,254.83 160.7,351.49 						"/>
					</g>
				</g>
			</g>
			<g>
				<g>
					<g>
						
							<ellipse transform="matrix(0.3827 -0.9239 0.9239 0.3827 -71.2758 409.7281)" class="st3" cx="270.96" cy="258.2" rx="13.96" ry="13.96"/>
					</g>
				</g>
			</g>
		</g>
		<g>
			<path class="st3" d="M97.04,505.48v-59.06c0-0.88,0.71-1.6,1.6-1.6h17.36c0.88,0,1.6,0.71,1.6,1.6v38.03c0,0.88,0.71,1.6,1.6,1.6
				h38.48c0.88,0,1.6,0.71,1.6,1.6v17.84c0,0.88-0.71,1.6-1.6,1.6H98.63C97.75,507.08,97.04,506.36,97.04,505.48z"/>
			<path class="st3" d="M436.01,505.48V487.9c0-0.88,0.71-1.6,1.6-1.6h38.17c0.88,0,1.6-0.71,1.6-1.6v-38.2c0-0.88,0.71-1.6,1.6-1.6
				h17.67c0.88,0,1.6,0.71,1.6,1.6v58.97c0,0.88-0.71,1.6-1.6,1.6h-59.03C436.73,507.08,436.01,506.36,436.01,505.48z"/>
			<path class="st3" d="M251.79,505.48v-17.37c0-0.88,0.71-1.6,1.6-1.6h88.51c0.88,0,1.6,0.71,1.6,1.6v17.37
				c0,0.88-0.71,1.6-1.6,1.6h-88.51C252.5,507.08,251.79,506.36,251.79,505.48z"/>
			<path class="st3" d="M159.18,89.8v17.36c0,0.88-0.71,1.6-1.6,1.6h-38.22c-0.88,0-1.6,0.71-1.6,1.6v38.2c0,0.88-0.71,1.6-1.6,1.6
				H98.82c-0.88,0-1.6-0.71-1.6-1.6V89.8c0-0.88,0.71-1.6,1.6-1.6h58.77C158.47,88.2,159.18,88.92,159.18,89.8z"/>
			<path class="st3" d="M476,108.86h-38.27c-0.88,0-1.6-0.71-1.6-1.6V89.82c0-0.88,0.71-1.6,1.6-1.6h58.64c0.88,0,1.6,0.71,1.6,1.6
				v58.77c0,0.88-0.71,1.6-1.6,1.6h-17.18c-0.88,0-1.6-0.71-1.6-1.6v-38.14C477.59,109.57,476.88,108.86,476,108.86z"/>
			<path class="st3" d="M98.9,248.61h16.93c0.88,0,1.6,0.71,1.6,1.6v94.44c0,0.88-0.71,1.6-1.6,1.6H98.9c-0.88,0-1.6-0.71-1.6-1.6
				v-94.44C97.3,249.33,98.02,248.61,98.9,248.61z"/>
			<path class="st3" d="M496.37,346.39h-16.93c-0.88,0-1.6-0.71-1.6-1.6v-94.44c0-0.88,0.71-1.6,1.6-1.6h16.93
				c0.88,0,1.6,0.71,1.6,1.6v94.44C497.97,345.67,497.25,346.39,496.37,346.39z"/>
			<path class="st3" d="M251.82,106.85V89.85c0-0.88,0.71-1.6,1.6-1.6h88.38c0.88,0,1.6,0.71,1.6,1.6v16.99c0,0.88-0.71,1.6-1.6,1.6
				h-88.38C252.54,108.44,251.82,107.73,251.82,106.85z"/>
		</g>
	</g>
</g>
</svg>
